<svg width="406" height="396" viewBox="0 0 406 396" fill="none" xmlns="http://www.w3.org/2000/svg">
<path d="M373.577 269.845C336.263 357.763 236.865 407.015 150.667 393.729C136.645 391.567 98.1982 385.13 64.1467 354.747C-1.39173 296.262 -15.4009 180.454 37.4608 98.8438C75.939 39.4489 144.916 5.77145 210.458 7.45673C224.576 7.81867 278.681 10.0553 326.228 49.2877C333.212 55.0505 348.616 68.7434 362.5 90.4669C395.098 141.478 397.9 212.548 373.577 269.845Z" fill="url(#paint0_linear_127_29)"/>
<path d="M44.476 1.98247C44.1129 0.456951 45.9412 -0.626042 47.1181 0.407467C59.0743 10.9037 88.0251 42.5594 83.0149 99.7714C76.7372 171.552 92.5041 197.129 111.567 212.41C111.567 212.41 85.8746 205.793 68.9718 179.869C27.47 116.22 50.9345 29.0884 44.476 1.98247Z" fill="url(#paint1_linear_127_29)"/>
<g style="mix-blend-mode:soft-light">
<path d="M54.0514 24.0127C55.7709 31.9217 57.3336 39.8589 58.6038 47.8442C59.9169 55.8201 60.9836 63.8276 61.8041 71.8666C62.5925 79.9028 63.2297 87.9532 63.5236 96.0191C63.8542 104.078 63.8387 112.151 63.7949 120.252C63.7949 128.349 63.7511 136.511 64.5409 144.692C65.3307 152.872 67.0842 161.068 70.3014 168.71C71.1053 170.614 71.946 172.511 72.8899 174.34C73.8012 176.186 74.7945 177.993 75.8189 179.781C77.8834 183.357 80.1969 186.783 82.7422 190.034C87.864 196.521 93.9693 202.223 100.642 207C100.977 207.234 101.389 207.328 101.792 207.262C102.194 207.196 102.555 206.975 102.797 206.647C103.039 206.318 103.144 205.908 103.088 205.504C103.032 205.1 102.821 204.733 102.499 204.482C100.91 203.275 99.3341 202.052 97.8195 200.761C97.0523 200.129 96.3133 199.463 95.5588 198.812C94.834 198.133 94.0823 197.481 93.3801 196.78C90.5197 194.028 87.8622 191.073 85.4281 187.938C80.5423 181.699 76.5621 174.697 73.4791 167.403C71.9753 163.738 70.7506 159.965 69.8153 156.115C68.895 152.247 68.2342 148.321 67.8373 144.364C67.0093 136.421 66.9895 128.346 66.9287 120.251C66.868 112.155 66.7338 104.016 66.2731 95.8961C66.0546 91.8365 65.7626 87.7835 65.3971 83.7371C65.2276 81.7125 65.0171 79.6907 64.8122 77.669C64.6073 75.6472 64.3502 73.6325 64.0972 71.6164C63.0705 63.5566 61.7989 55.5369 60.2824 47.5572C58.7197 39.5903 56.9479 31.6672 54.8737 23.8275C54.8356 23.7332 54.765 23.6557 54.6746 23.6092C54.5842 23.5626 54.4802 23.5501 54.3814 23.5739C54.2825 23.5978 54.1956 23.6563 54.1363 23.7389C54.077 23.8216 54.0494 23.9227 54.0584 24.024L54.0514 24.0127Z" fill="white"/>
</g>
<path d="M66.1248 234.564C65.4 237.36 62.0584 238.506 59.7497 236.774C47.0093 227.218 13.4312 196.941 11.2779 141.983C9.45951 95.5723 4.07203 70.5843 0.832197 59.4037C0.141277 57.0412 2.87528 55.1778 4.82794 56.6722C26.3736 73.1659 92.3543 133.281 66.1248 234.564Z" fill="url(#paint2_linear_127_29)"/>
<g style="mix-blend-mode:soft-light">
<path d="M62.235 234.953C62.1787 235 62.1176 235.04 62.0527 235.073C61.7886 235.212 61.4801 235.241 61.1948 235.154C60.9094 235.066 60.6703 234.869 60.5296 234.605C60.2004 233.981 27.4672 171.489 22.0261 107.078C22.0002 106.924 22.0066 106.766 22.0449 106.614C22.0831 106.463 22.1523 106.321 22.2481 106.197C22.3439 106.074 22.4643 105.972 22.6016 105.897C22.7389 105.822 22.8902 105.777 23.0459 105.764C23.2015 105.751 23.3583 105.77 23.5061 105.821C23.6539 105.871 23.7897 105.952 23.9049 106.058C24.02 106.163 24.112 106.292 24.175 106.435C24.2381 106.578 24.2708 106.732 24.2712 106.889C29.6728 170.835 62.194 232.934 62.5218 233.554C62.6423 233.784 62.6795 234.049 62.6273 234.304C62.575 234.559 62.4365 234.789 62.235 234.953Z" fill="white"/>
</g>
<path d="M27.7922 369.192C27.7978 370.871 28.4673 372.48 29.6544 373.666C30.8416 374.853 32.4498 375.521 34.1277 375.525H376.712C378.39 375.521 379.998 374.853 381.185 373.666C382.373 372.48 383.042 370.871 383.048 369.192L385.898 172.192C385.898 168.708 381.8 161.908 374.28 162.42L39.4686 153.75C37.3065 153.693 35.1555 154.076 33.1459 154.876C31.1364 155.677 29.3103 156.877 27.7784 158.405C26.2465 159.932 25.0407 161.756 24.2343 163.764C23.4279 165.772 23.0376 167.923 23.0872 170.087L27.7922 369.192Z" fill="url(#paint3_linear_127_29)"/>
<path d="M34.0514 363.115C34.0559 364.705 34.6888 366.227 35.8119 367.351C36.9349 368.475 38.4568 369.108 40.045 369.113H368.451C370.039 369.108 371.56 368.475 372.683 367.351C373.806 366.227 374.439 364.704 374.444 363.115L377.129 184.277C376.812 173.515 367.38 169.647 361.666 169.876L40.7854 161.262C39.2654 161.221 37.753 161.491 36.3403 162.054C34.9275 162.617 33.6439 163.461 32.5673 164.535C31.4907 165.61 30.6436 166.892 30.0775 168.304C29.5114 169.717 29.2382 171.229 29.2743 172.75L34.0514 363.115Z" fill="url(#paint4_linear_127_29)"/>
<g opacity="0.67">
<path d="M370.892 278.156H370.88C370.764 278.154 370.65 278.129 370.544 278.084C370.438 278.038 370.342 277.971 370.262 277.888C370.181 277.805 370.118 277.707 370.076 277.6C370.034 277.492 370.013 277.378 370.015 277.262L370.227 262.759C370.23 262.528 370.324 262.308 370.488 262.146C370.652 261.984 370.874 261.894 371.104 261.894H371.117C371.232 261.895 371.346 261.919 371.453 261.965C371.559 262.011 371.655 262.077 371.735 262.16C371.816 262.243 371.879 262.341 371.921 262.448C371.964 262.555 371.985 262.67 371.983 262.786L371.77 277.289C371.766 277.52 371.673 277.74 371.508 277.902C371.344 278.064 371.123 278.155 370.892 278.156Z" fill="#91B3FA"/>
<path d="M371.416 242.616H371.404C371.288 242.614 371.175 242.59 371.069 242.544C370.963 242.499 370.867 242.432 370.787 242.349C370.706 242.267 370.643 242.169 370.601 242.061C370.558 241.954 370.537 241.839 370.539 241.724L371.353 186.176C371.339 182.876 370.337 180.238 368.379 178.363C364.722 174.857 358.912 175.036 358.671 175.048L256.109 172.295C255.878 172.288 255.658 172.189 255.5 172.02C255.341 171.851 255.255 171.626 255.262 171.394C255.261 171.278 255.285 171.163 255.331 171.057C255.377 170.95 255.444 170.854 255.528 170.775C255.613 170.695 255.713 170.634 255.822 170.595C255.931 170.555 256.047 170.539 256.163 170.546L358.665 173.299C359.302 173.261 365.484 173.157 369.601 177.101C371.917 179.322 373.099 182.38 373.118 186.192L372.302 241.755C372.298 241.986 372.202 242.206 372.036 242.368C371.87 242.529 371.648 242.618 371.416 242.616Z" fill="#91B3FA"/>
</g>
<path d="M0.79834 391.878L403.096 391.878C403.537 391.878 403.894 391.521 403.894 391.08V375.368C403.894 374.927 403.537 374.569 403.096 374.569L0.79834 374.569C0.357452 374.569 0 374.927 0 375.368V391.08C0 391.521 0.357452 391.878 0.79834 391.878Z" fill="#0E046A"/>
<g opacity="0.3">
<path d="M351.758 64.7988C351.378 64.783 351.02 64.6169 350.762 64.3369C350.505 64.057 350.368 63.6861 350.384 63.3058C350.447 61.7675 350.444 60.2038 350.384 58.6571C350.367 58.2817 350.498 57.9146 350.748 57.6348C350.999 57.355 351.35 57.185 351.725 57.1613H351.753C352.133 57.1444 352.504 57.2793 352.785 57.5362C353.065 57.7931 353.232 58.1511 353.249 58.5313C353.321 60.1586 353.324 61.8057 353.258 63.426C353.243 63.78 353.097 64.116 352.85 64.3694C352.602 64.6228 352.27 64.7757 351.917 64.7988C351.864 64.8019 351.811 64.8019 351.758 64.7988ZM349.526 51.1525C349.243 49.6298 348.902 48.1057 348.497 46.6198C348.442 46.4362 348.424 46.2434 348.444 46.0528C348.465 45.8621 348.523 45.6775 348.616 45.5098C348.709 45.3421 348.834 45.1947 348.985 45.0763C349.136 44.958 349.309 44.8711 349.494 44.8207C349.679 44.7703 349.872 44.7576 350.062 44.7831C350.252 44.8087 350.434 44.8721 350.599 44.9695C350.764 45.067 350.908 45.1965 351.022 45.3506C351.137 45.5046 351.219 45.6799 351.264 45.8662C351.688 47.4285 352.055 49.0332 352.348 50.6351C352.382 50.8204 352.379 51.0107 352.339 51.1949C352.299 51.3792 352.224 51.5538 352.117 51.7089C352.01 51.8639 351.873 51.9964 351.715 52.0986C351.557 52.2009 351.38 52.2709 351.195 52.3048C351.139 52.3152 351.083 52.3223 351.027 52.326C350.676 52.3477 350.33 52.2403 350.054 52.0241C349.777 51.8079 349.59 51.4978 349.526 51.1525ZM346.011 39.4927C345.403 38.0788 344.726 36.665 343.997 35.3049C343.908 35.1387 343.853 34.9567 343.835 34.7691C343.816 34.5816 343.835 34.3922 343.889 34.2118C343.944 34.0314 344.033 33.8635 344.153 33.7178C344.272 33.572 344.419 33.4512 344.585 33.3623C344.751 33.2734 344.933 33.218 345.121 33.1995C345.308 33.1809 345.497 33.1994 345.677 33.2541C345.858 33.3087 346.026 33.3983 346.171 33.5178C346.317 33.6373 346.438 33.7843 346.526 33.9505C347.294 35.3841 348.007 36.8672 348.646 38.3602C348.796 38.7099 348.801 39.1048 348.66 39.4583C348.519 39.8117 348.244 40.0946 347.894 40.2448C347.744 40.3103 347.583 40.349 347.419 40.3593C347.124 40.3776 346.83 40.3042 346.578 40.1491C346.326 39.994 346.128 39.7647 346.011 39.4927ZM339.979 28.913C339.068 27.6646 338.093 26.443 337.08 25.2794C336.83 24.9924 336.704 24.6178 336.73 24.2379C336.756 23.8581 336.932 23.5042 337.219 23.2541C337.506 23.004 337.88 22.8782 338.26 22.9043C338.639 22.9304 338.993 23.1064 339.243 23.3934C340.31 24.6192 341.335 25.9058 342.295 27.2192C342.406 27.3714 342.486 27.544 342.531 27.7272C342.576 27.9104 342.584 28.1006 342.555 28.287C342.526 28.4733 342.461 28.6522 342.363 28.8133C342.265 28.9745 342.137 29.1147 341.985 29.2261C341.833 29.3375 341.66 29.4179 341.477 29.4626C341.294 29.5073 341.104 29.5154 340.918 29.4866C340.731 29.4578 340.553 29.3926 340.391 29.2946C340.23 29.1967 340.09 29.068 339.979 28.9158V28.913ZM331.742 19.938C330.579 18.9271 329.357 17.9502 328.109 17.0382C327.802 16.8132 327.597 16.4754 327.539 16.099C327.48 15.7227 327.574 15.3386 327.799 15.0313C328.024 14.724 328.361 14.5187 328.737 14.4605C329.114 14.4023 329.497 14.496 329.804 14.721C331.118 15.681 332.404 16.7088 333.626 17.7734C333.768 17.8973 333.885 18.0479 333.969 18.2167C334.052 18.3855 334.102 18.5692 334.115 18.7572C334.128 18.9453 334.104 19.1341 334.044 19.3128C333.984 19.4915 333.889 19.6566 333.766 19.7987C333.642 19.9409 333.491 20.0572 333.323 20.1411C333.154 20.225 332.97 20.2749 332.782 20.2878C332.594 20.3008 332.406 20.2765 332.227 20.2165C332.049 20.1565 331.884 20.0618 331.742 19.938ZM321.725 13.0102C320.366 12.2793 318.959 11.5964 317.543 10.9856C317.361 10.9179 317.195 10.8138 317.054 10.6796C316.913 10.5455 316.801 10.3842 316.725 10.2055C316.648 10.0267 316.609 9.83429 316.609 9.63985C316.609 9.4454 316.649 9.25301 316.725 9.07434C316.802 8.89568 316.914 8.73446 317.055 8.6005C317.196 8.46653 317.362 8.3626 317.545 8.29501C317.727 8.22742 317.921 8.1976 318.115 8.20733C318.309 8.21707 318.499 8.26618 318.673 8.35166C320.164 8.99496 321.641 9.71318 323.076 10.4809C323.243 10.5698 323.39 10.6907 323.51 10.8366C323.629 10.9825 323.719 11.1506 323.774 11.3312C323.829 11.5119 323.848 11.7015 323.829 11.8894C323.811 12.0773 323.756 12.2598 323.667 12.4263C323.578 12.5929 323.457 12.7403 323.311 12.8601C323.165 12.9799 322.997 13.0698 322.817 13.1247C322.636 13.1796 322.447 13.1984 322.259 13.1799C322.071 13.1615 321.889 13.1062 321.723 13.0173L321.725 13.0102ZM268.469 12.3486C268.291 12.0127 268.253 11.6197 268.364 11.2558C268.474 10.8918 268.725 10.5867 269.06 10.4074C270.493 9.64249 271.978 8.93133 273.473 8.28663C273.646 8.21236 273.832 8.17296 274.02 8.17067C274.209 8.16839 274.396 8.20326 274.571 8.2733C274.746 8.34334 274.905 8.44718 275.04 8.57888C275.175 8.71059 275.283 8.86759 275.357 9.04091C275.431 9.21423 275.47 9.40048 275.473 9.58902C275.475 9.77757 275.44 9.96472 275.37 10.1398C275.3 10.3149 275.196 10.4744 275.065 10.6094C274.933 10.7443 274.776 10.852 274.603 10.9262C273.19 11.5328 271.777 12.2086 270.414 12.9339C270.233 13.0309 270.034 13.0878 269.83 13.1007C269.555 13.1191 269.281 13.058 269.039 12.9246C268.798 12.7913 268.6 12.5913 268.469 12.3486ZM310.433 8.48881C308.947 8.08021 307.424 7.72958 305.912 7.44964C305.726 7.41539 305.549 7.3449 305.391 7.2422C305.233 7.1395 305.096 7.0066 304.989 6.85109C304.882 6.69558 304.807 6.52051 304.768 6.33587C304.728 6.15122 304.725 5.96063 304.76 5.77496C304.794 5.58929 304.864 5.41219 304.967 5.25377C305.07 5.09534 305.202 4.9587 305.358 4.85163C305.513 4.74457 305.688 4.66918 305.873 4.62978C306.057 4.59038 306.248 4.58773 306.433 4.62198C308.03 4.91747 309.634 5.28507 311.198 5.71629C311.525 5.80561 311.81 6.00812 312.002 6.28784C312.194 6.56755 312.281 6.90637 312.247 7.2441C312.213 7.58183 312.061 7.8966 311.817 8.13251C311.573 8.36842 311.254 8.51019 310.915 8.53263C310.753 8.54509 310.589 8.52931 310.432 8.48598L310.433 8.48881ZM279.971 7.44681C279.921 7.26486 279.909 7.07499 279.933 6.88804C279.957 6.7011 280.018 6.52075 280.111 6.35729C280.205 6.19382 280.33 6.05046 280.479 5.93538C280.629 5.8203 280.799 5.73576 280.981 5.6866C282.546 5.26245 284.152 4.90192 285.751 4.61209C286.126 4.54422 286.512 4.62808 286.825 4.84524C287.138 5.06239 287.352 5.39504 287.42 5.77001C287.487 6.14498 287.404 6.53156 287.187 6.84469C286.97 7.15783 286.637 7.37187 286.262 7.43974C284.744 7.72251 283.218 8.059 281.728 8.46194C281.636 8.48703 281.541 8.50266 281.446 8.5086C281.115 8.52957 280.787 8.43524 280.518 8.24164C280.25 8.04805 280.056 7.76717 279.971 7.44681ZM298.412 6.59852C296.872 6.53207 295.304 6.53207 293.766 6.59852C293.389 6.61443 293.021 6.48082 292.741 6.22669C292.462 5.97256 292.294 5.61841 292.274 5.2411C292.254 4.8638 292.383 4.49379 292.634 4.21139C292.885 3.92898 293.237 3.75697 293.614 3.73268H293.645C295.27 3.66341 296.914 3.66341 298.535 3.73268C298.9 3.75131 299.244 3.90846 299.497 4.17212C299.75 4.43578 299.893 4.7861 299.897 5.15169C299.901 5.51728 299.766 5.87062 299.519 6.13971C299.271 6.4088 298.931 6.57339 298.566 6.59993C298.515 6.60276 298.463 6.60276 298.409 6.60134L298.412 6.59852Z" fill="#BDD0FB"/>
<path d="M261.406 18.6331C261.698 18.6144 261.977 18.5069 262.206 18.3249C262.784 17.8654 263.383 17.4102 263.983 16.9705C264.291 16.7455 264.496 16.4076 264.554 16.0311C264.613 15.6546 264.519 15.2703 264.294 14.9628C264.069 14.6554 263.732 14.4498 263.356 14.3915C262.979 14.3332 262.595 14.4268 262.288 14.6518C261.656 15.1141 261.028 15.5934 260.417 16.0769C260.177 16.2672 260.005 16.5293 259.924 16.8249C259.844 17.1204 259.86 17.4339 259.971 17.7196C260.081 18.0052 260.28 18.248 260.539 18.4124C260.797 18.5767 261.101 18.6541 261.406 18.6331Z" fill="#BDD0FB"/>
</g>
<g opacity="0.3">
<path d="M240.496 57.0611C240.836 57.0391 241.158 56.8967 241.402 56.6594C241.647 56.4221 241.799 56.1054 241.832 55.766C241.902 55.0294 241.99 54.2815 242.09 53.5449C242.117 53.3578 242.106 53.1675 242.059 52.9846C242.011 52.8018 241.928 52.63 241.815 52.4793C241.701 52.3286 241.559 52.2018 241.396 52.1063C241.233 52.0107 241.053 51.9483 240.866 51.9225C240.679 51.8967 240.489 51.9081 240.306 51.9561C240.124 52.004 239.952 52.0876 239.802 52.2019C239.652 52.3163 239.526 52.4591 239.431 52.6224C239.336 52.7856 239.274 52.966 239.249 53.1532C239.143 53.9294 239.051 54.7169 238.976 55.4917C238.94 55.8707 239.056 56.2484 239.298 56.5421C239.54 56.8358 239.889 57.0214 240.268 57.0582C240.344 57.0648 240.42 57.0657 240.496 57.0611Z" fill="#BDD0FB"/>
<path d="M296.758 118.329C296.377 118.335 296.01 118.189 295.738 117.923C295.465 117.658 295.308 117.295 295.303 116.915C295.298 116.534 295.443 116.167 295.709 115.894C295.974 115.621 296.336 115.465 296.717 115.459C298.224 115.437 299.756 115.35 301.283 115.202C301.662 115.164 302.04 115.279 302.334 115.52C302.628 115.762 302.815 116.11 302.852 116.489C302.89 116.868 302.775 117.246 302.534 117.541C302.293 117.835 301.945 118.022 301.566 118.059C300.906 118.124 300.247 118.178 299.588 118.219C298.64 118.278 297.69 118.315 296.758 118.329ZM307.545 115.709C307.502 115.526 307.495 115.336 307.525 115.15C307.555 114.964 307.621 114.786 307.72 114.626C307.819 114.465 307.948 114.326 308.101 114.216C308.253 114.106 308.426 114.027 308.609 113.983C310.089 113.631 311.576 113.214 313.011 112.742C313.19 112.681 313.38 112.656 313.569 112.669C313.758 112.682 313.943 112.733 314.112 112.817C314.282 112.902 314.433 113.02 314.557 113.163C314.681 113.307 314.775 113.474 314.834 113.654C314.893 113.834 314.916 114.025 314.901 114.214C314.886 114.403 314.834 114.587 314.747 114.756C314.661 114.925 314.541 115.075 314.397 115.197C314.252 115.319 314.084 115.412 313.903 115.469C312.387 115.967 310.829 116.406 309.272 116.775C309.192 116.794 309.111 116.806 309.029 116.811C308.691 116.832 308.357 116.733 308.086 116.532C307.814 116.33 307.623 116.039 307.545 115.709ZM288.954 117.905C287.37 117.71 285.774 117.444 284.207 117.115C283.834 117.036 283.508 116.813 283.301 116.494C283.093 116.176 283.02 115.787 283.098 115.415C283.177 115.042 283.4 114.716 283.718 114.508C284.037 114.3 284.425 114.227 284.797 114.306C286.285 114.619 287.801 114.871 289.304 115.056C289.682 115.103 290.026 115.297 290.26 115.597C290.494 115.897 290.599 116.278 290.553 116.656C290.506 117.034 290.312 117.378 290.012 117.612C289.712 117.846 289.332 117.952 288.954 117.905ZM319.232 111.869C319.149 111.7 319.1 111.516 319.089 111.328C319.077 111.14 319.103 110.951 319.164 110.773C319.225 110.594 319.321 110.43 319.446 110.289C319.571 110.147 319.722 110.032 319.891 109.95C321.255 109.284 322.607 108.55 323.91 107.772C324.071 107.673 324.251 107.607 324.439 107.577C324.626 107.548 324.818 107.556 325.002 107.601C325.186 107.646 325.36 107.728 325.512 107.841C325.665 107.953 325.794 108.095 325.891 108.258C325.989 108.421 326.053 108.602 326.08 108.79C326.107 108.978 326.097 109.169 326.049 109.353C326.002 109.537 325.918 109.71 325.804 109.861C325.689 110.012 325.546 110.14 325.382 110.235C324.01 111.055 322.586 111.827 321.143 112.53C320.975 112.611 320.793 112.659 320.606 112.671C320.324 112.688 320.043 112.621 319.798 112.478C319.553 112.335 319.356 112.124 319.232 111.869ZM276.693 114.98C275.192 114.441 273.693 113.83 272.238 113.165C272.064 113.088 271.907 112.978 271.776 112.84C271.645 112.702 271.543 112.539 271.475 112.362C271.407 112.184 271.376 111.994 271.382 111.804C271.388 111.614 271.432 111.427 271.511 111.254C271.59 111.081 271.703 110.926 271.842 110.797C271.982 110.668 272.146 110.568 272.324 110.503C272.503 110.438 272.693 110.409 272.883 110.418C273.072 110.426 273.259 110.473 273.43 110.555C274.812 111.187 276.236 111.766 277.669 112.278C277.846 112.342 278.009 112.44 278.149 112.567C278.288 112.693 278.401 112.846 278.482 113.017C278.562 113.187 278.608 113.372 278.617 113.56C278.626 113.748 278.598 113.937 278.534 114.114C278.471 114.291 278.373 114.454 278.246 114.594C278.12 114.734 277.967 114.847 277.796 114.927C277.626 115.008 277.441 115.054 277.253 115.063C277.065 115.072 276.877 115.044 276.7 114.98H276.693ZM265.37 109.439C264.02 108.582 262.685 107.659 261.413 106.695C261.11 106.465 260.911 106.124 260.859 105.747C260.807 105.37 260.907 104.988 261.136 104.684C261.366 104.381 261.707 104.181 262.084 104.129C262.46 104.078 262.842 104.177 263.146 104.407C264.358 105.333 265.63 106.204 266.901 107.019C267.157 107.181 267.355 107.42 267.466 107.702C267.578 107.984 267.597 108.294 267.522 108.587C267.447 108.881 267.28 109.143 267.047 109.336C266.814 109.529 266.525 109.643 266.223 109.663C265.922 109.682 265.623 109.606 265.37 109.443V109.439ZM255.521 101.56C254.391 100.429 253.292 99.2369 252.26 98.0253C252.139 97.8815 252.046 97.7151 251.989 97.5356C251.931 97.3561 251.91 97.167 251.925 96.9791C251.941 96.7913 251.993 96.6083 252.079 96.4406C252.165 96.273 252.283 96.124 252.427 96.0021C252.571 95.8802 252.737 95.7878 252.917 95.7302C253.096 95.6727 253.285 95.651 253.473 95.6665C253.66 95.682 253.843 95.7343 254.011 95.8205C254.178 95.9067 254.327 96.0251 254.449 96.1689C255.43 97.3268 256.471 98.4593 257.548 99.5338C257.817 99.8027 257.968 100.168 257.969 100.548C257.969 100.929 257.818 101.294 257.55 101.563C257.281 101.833 256.916 101.984 256.536 101.985C256.156 101.985 255.791 101.834 255.521 101.566V101.56ZM247.626 91.7182C246.768 90.368 245.959 88.964 245.224 87.5474C245.137 87.3803 245.083 87.1976 245.067 87.0099C245.05 86.8221 245.071 86.6329 245.127 86.453C245.183 86.2731 245.275 86.1062 245.396 85.9616C245.516 85.817 245.665 85.6977 245.832 85.6104C245.999 85.5232 246.181 85.4697 246.369 85.453C246.556 85.4363 246.746 85.4568 246.925 85.5133C247.105 85.5697 247.272 85.661 247.416 85.782C247.561 85.903 247.68 86.0513 247.767 86.2184C248.474 87.5644 249.24 88.8962 250.055 90.1771C250.258 90.4983 250.326 90.8872 250.243 91.2584C250.16 91.6295 249.933 91.9525 249.613 92.1565C249.41 92.2866 249.177 92.3625 248.936 92.377C248.679 92.3957 248.422 92.3448 248.191 92.2296C247.961 92.1144 247.766 91.9392 247.626 91.7224V91.7182ZM242.082 80.3764C241.543 78.8735 241.063 77.3268 240.653 75.7801C240.605 75.5978 240.592 75.4077 240.617 75.2207C240.642 75.0336 240.703 74.8533 240.798 74.69C240.892 74.5267 241.018 74.3837 241.168 74.2691C241.317 74.1545 241.488 74.0706 241.671 74.0222C241.853 73.9737 242.043 73.9618 242.23 73.9869C242.417 74.012 242.597 74.0738 242.76 74.1687C242.923 74.2635 243.065 74.3896 243.18 74.5397C243.294 74.6898 243.377 74.861 243.425 75.0435C243.815 76.5125 244.273 77.9814 244.782 79.4094C244.846 79.587 244.874 79.7754 244.865 79.964C244.856 80.1525 244.81 80.3375 244.73 80.5082C244.649 80.6789 244.536 80.8321 244.396 80.9589C244.257 81.0858 244.093 81.1838 243.916 81.2474C243.789 81.2917 243.657 81.3188 243.523 81.328C243.213 81.3476 242.904 81.2658 242.644 81.095C242.384 80.9241 242.187 80.6735 242.082 80.3807V80.3764ZM239.164 68.1058C239.023 66.938 238.907 65.7504 238.832 64.5713C238.805 64.1471 238.784 63.723 238.766 63.2988C238.756 63.11 238.784 62.9211 238.848 62.7432C238.912 62.5653 239.011 62.402 239.138 62.2628C239.266 62.1236 239.421 62.0114 239.593 61.9327C239.764 61.8539 239.95 61.8103 240.139 61.8044C240.519 61.7887 240.89 61.9246 241.17 62.1823C241.45 62.4399 241.616 62.7983 241.632 63.1786C241.649 63.5802 241.669 63.9845 241.695 64.3875C241.767 65.5016 241.873 66.6298 242.011 67.7396C242.058 68.1174 241.953 68.4982 241.719 68.7986C241.486 69.0989 241.142 69.2942 240.765 69.3415L240.677 69.35C240.315 69.373 239.958 69.2578 239.677 69.0278C239.396 68.7978 239.213 68.4699 239.164 68.1101V68.1058Z" fill="#BDD0FB"/>
<path d="M331.025 106.06C331.32 106.042 331.601 105.933 331.831 105.748C332.435 105.263 333.043 104.758 333.634 104.238C333.793 104.12 333.926 103.97 334.024 103.798C334.123 103.627 334.185 103.436 334.206 103.239C334.227 103.042 334.208 102.843 334.149 102.654C334.089 102.465 333.991 102.29 333.861 102.141C333.731 101.992 333.571 101.871 333.392 101.786C333.213 101.702 333.019 101.655 332.821 101.65C332.623 101.644 332.426 101.68 332.242 101.754C332.059 101.828 331.893 101.94 331.754 102.082C331.189 102.572 330.616 103.054 330.04 103.517C329.806 103.708 329.637 103.97 329.56 104.263C329.483 104.556 329.5 104.866 329.61 105.149C329.72 105.432 329.916 105.672 330.171 105.836C330.426 106 330.727 106.079 331.029 106.062L331.025 106.06Z" fill="#BDD0FB"/>
</g>
<path d="M333.732 81.6064C333.813 81.4927 333.857 81.3565 333.857 81.2169C333.857 81.0773 333.813 80.9411 333.732 80.8274L329.008 74.1725C330.481 70.5987 331.363 66.8085 331.617 62.9509L338.786 59.0657C338.909 58.9993 339.008 58.8961 339.07 58.7706C339.131 58.6452 339.151 58.5036 339.128 58.3659L337.528 48.7052C337.505 48.5676 337.44 48.4406 337.342 48.3418C337.243 48.2429 337.117 48.1772 336.979 48.1538L328.94 46.7923C327.456 43.2233 325.4 39.9206 322.853 37.0142L325.179 29.1887C325.218 29.0548 325.215 28.912 325.17 28.78C325.124 28.6479 325.039 28.5333 324.926 28.4521L316.967 22.7544C316.853 22.6733 316.717 22.6297 316.578 22.6297C316.439 22.6297 316.303 22.6733 316.19 22.7544L309.538 27.4822C305.966 26.0073 302.178 25.1248 298.323 24.8694L294.44 17.6957C294.374 17.5715 294.269 17.4716 294.143 17.4102C294.016 17.3488 293.873 17.3289 293.734 17.3535L284.085 18.9483C283.948 18.9717 283.821 19.0372 283.722 19.1357C283.624 19.2342 283.558 19.3609 283.534 19.4983L282.173 27.543C278.607 29.0292 275.306 31.0879 272.402 33.638L264.581 31.3109C264.447 31.271 264.305 31.274 264.173 31.3194C264.041 31.3648 263.926 31.4503 263.845 31.5639L258.151 39.5266C258.07 39.6404 258.027 39.7765 258.027 39.9161C258.027 40.0557 258.07 40.1919 258.151 40.3056L262.876 46.9605C261.399 50.5356 260.516 54.3279 260.26 58.1877L253.096 62.0701C252.971 62.1368 252.871 62.2411 252.81 62.3681C252.749 62.495 252.729 62.6382 252.754 62.777L254.354 72.4363C254.377 72.574 254.442 72.7013 254.54 72.8004C254.639 72.8994 254.765 72.9654 254.903 72.9891L262.942 74.3506C264.428 77.9186 266.486 81.2203 269.033 84.1259L266.708 91.95C266.668 92.0838 266.67 92.2268 266.716 92.3589C266.761 92.4911 266.847 92.6056 266.961 92.6866L274.92 98.3857C275.033 98.4668 275.169 98.5104 275.308 98.5104C275.447 98.5104 275.583 98.4668 275.697 98.3857L282.349 93.6579C285.92 95.1323 289.708 96.0143 293.563 96.2692L297.446 103.443C297.513 103.567 297.617 103.667 297.744 103.728C297.87 103.79 298.013 103.81 298.152 103.785L307.807 102.183C307.944 102.16 308.071 102.095 308.17 101.996C308.269 101.898 308.334 101.771 308.358 101.633L309.713 93.5985C313.279 92.1113 316.58 90.0526 319.485 87.5035L327.305 89.8307C327.439 89.8698 327.581 89.8665 327.713 89.8212C327.845 89.7759 327.96 89.6908 328.041 89.5776L333.732 81.6064Z" fill="#BDD0FB"/>
<path d="M295.127 70.3792C292.591 70.1672 290.235 68.9794 288.556 67.0654C286.877 65.1515 286.005 62.6606 286.124 60.1166C286.242 57.5726 287.342 55.1737 289.192 53.4243C291.041 51.6749 293.497 50.7113 296.042 50.7362C298.587 50.7611 301.023 51.7725 302.838 53.5578C304.653 55.343 305.706 57.763 305.775 60.3088C305.843 62.8547 304.923 65.328 303.207 67.2087C301.491 69.0894 299.112 70.231 296.573 70.3934C296.091 70.4232 295.608 70.4185 295.127 70.3792ZM291.069 54.8102C289.738 55.9384 288.839 57.4937 288.525 59.2109C288.211 60.9282 288.501 62.7013 289.347 64.2282C290.193 65.7551 291.542 66.9413 293.163 67.5848C294.785 68.2284 296.58 68.2894 298.242 67.7574C299.903 67.2255 301.329 66.1336 302.277 64.6677C303.224 63.2017 303.634 61.4524 303.438 59.7178C303.241 57.9832 302.449 56.3704 301.197 55.1544C299.945 53.9383 298.311 53.1941 296.573 53.0485C296.201 53.0179 295.827 53.0141 295.455 53.0372C293.84 53.1385 292.301 53.7606 291.069 54.8102Z" fill="url(#paint5_linear_127_29)"/>
<path d="M297.279 84.5938C298.106 84.5413 298.93 84.447 299.747 84.3111C300.007 84.2686 300.266 84.2215 300.523 84.1697C301.792 83.9175 303.038 83.5643 304.25 83.1135L304.3 83.0952L304.441 83.0429L304.712 82.9368C304.825 82.8927 304.92 82.8142 304.985 82.7127C305.05 82.6111 305.081 82.4917 305.074 82.3713C305.07 82.3112 305.056 82.2521 305.035 82.196C304.978 82.0546 304.868 81.9414 304.729 81.881C304.589 81.8206 304.431 81.8179 304.29 81.8736C301.092 83.1395 297.652 83.6735 294.221 83.4365C290.79 83.1996 287.455 82.1977 284.462 80.5042C281.468 78.8107 278.89 76.4686 276.918 73.6493C274.946 70.8301 273.629 67.6051 273.064 64.2106C272.935 63.4301 272.845 62.6435 272.794 61.8538C272.446 56.1602 274.219 50.5394 277.771 46.0775C281.322 41.6156 286.401 38.6293 292.024 37.6957C304.563 35.6159 316.445 44.1272 318.522 56.6679C319.208 60.78 318.764 65.0012 317.238 68.8805C317.206 68.959 317.193 69.0436 317.198 69.1279C317.207 69.2583 317.259 69.3819 317.347 69.4784C317.435 69.5749 317.553 69.6385 317.682 69.6587C317.811 69.679 317.943 69.6547 318.056 69.5898C318.169 69.5249 318.257 69.4233 318.305 69.3018C319.904 65.2284 320.371 60.7975 319.655 56.4798C317.473 43.3128 304.989 34.3803 291.836 36.5618C285.933 37.5427 280.602 40.6781 276.873 45.3623C273.145 50.0465 271.283 55.9472 271.649 61.9245C271.701 62.7535 271.795 63.5792 271.931 64.3987C272.912 70.306 276.045 75.6401 280.727 79.37C285.409 83.1 291.306 84.9612 297.279 84.5938Z" fill="url(#paint6_linear_127_29)"/>
<g opacity="0.3">
<path d="M403.149 99.4391C403.34 99.4274 403.523 99.3537 403.668 99.2292C403.814 99.1047 403.915 98.9362 403.956 98.7492C404.123 98.0154 404.268 97.2661 404.39 96.5238C404.427 96.2917 404.371 96.0542 404.234 95.8636C404.096 95.6729 403.889 95.5448 403.657 95.5073C403.425 95.4698 403.187 95.526 402.997 95.6636C402.806 95.8012 402.678 96.0089 402.641 96.241C402.525 96.948 402.386 97.6634 402.228 98.3618C402.177 98.5911 402.218 98.8314 402.344 99.03C402.47 99.2286 402.669 99.3691 402.898 99.4207C402.98 99.4394 403.065 99.4456 403.149 99.4391Z" fill="#BDD0FB"/>
<path d="M403.943 92.6796C403.709 92.6697 403.489 92.5674 403.33 92.3952C403.171 92.223 403.087 91.9948 403.096 91.7606C403.144 90.5207 403.128 89.2792 403.049 88.0408C403.033 87.7807 403.014 87.5206 402.991 87.259C402.972 87.0249 403.046 86.7925 403.197 86.613C403.349 86.4336 403.565 86.3216 403.799 86.3018C404.032 86.2902 404.26 86.3672 404.438 86.5173C404.615 86.6674 404.73 86.8794 404.757 87.1105C404.78 87.3829 404.8 87.6558 404.818 87.9292C404.9 89.2273 404.916 90.5287 404.866 91.8285C404.857 92.0473 404.768 92.2552 404.615 92.4119C404.462 92.5686 404.257 92.663 404.038 92.6768C404.007 92.6801 403.975 92.681 403.943 92.6796ZM402.335 82.8054C402.028 81.3356 401.631 79.886 401.146 78.465C401.108 78.3547 401.093 78.2381 401.1 78.1218C401.107 78.0054 401.137 77.8917 401.189 77.7871C401.24 77.6824 401.311 77.5889 401.399 77.5119C401.486 77.4349 401.588 77.3758 401.698 77.3382C401.808 77.3005 401.925 77.2849 402.041 77.2922C402.158 77.2996 402.271 77.3299 402.376 77.3812C402.48 77.4325 402.574 77.504 402.651 77.5914C402.728 77.6789 402.787 77.7807 402.824 77.891C403.333 79.381 403.749 80.9009 404.071 82.4421C404.119 82.6721 404.073 82.9118 403.945 83.1086C403.816 83.3053 403.615 83.4429 403.385 83.4911C403.343 83.4996 403.301 83.5052 403.258 83.5081C403.046 83.5212 402.836 83.4574 402.666 83.3284C402.497 83.1994 402.379 83.0138 402.335 82.8054ZM399.433 74.3041C398.774 72.9543 398.033 71.6464 397.214 70.3878C397.092 70.191 397.051 69.9541 397.101 69.728C397.152 69.5018 397.288 69.3043 397.482 69.1777C397.676 69.0512 397.912 69.0056 398.139 69.0507C398.366 69.0959 398.566 69.2282 398.697 69.4193C399.557 70.7368 400.334 72.1061 401.026 73.5194C401.077 73.624 401.107 73.7377 401.114 73.8539C401.121 73.9701 401.105 74.0865 401.067 74.1966C401.029 74.3067 400.97 74.4083 400.893 74.4955C400.816 74.5827 400.723 74.6538 400.618 74.7049C400.514 74.756 400.4 74.7859 400.284 74.793C400.168 74.8002 400.051 74.7844 399.941 74.7465C399.831 74.7086 399.73 74.6494 399.643 74.5723C399.555 74.4952 399.484 74.4016 399.433 74.297V74.3041ZM394.528 66.7769C393.559 65.6301 392.521 64.5441 391.419 63.525C391.246 63.3655 391.144 63.1438 391.135 62.9088C391.125 62.6737 391.21 62.4445 391.369 62.2717C391.529 62.0988 391.75 61.9964 391.985 61.987C392.22 61.9776 392.449 62.0619 392.622 62.2215C393.777 63.2906 394.866 64.43 395.881 65.6331C395.961 65.7212 396.023 65.8245 396.063 65.937C396.102 66.0495 396.118 66.1688 396.111 66.2877C396.103 66.4067 396.071 66.5229 396.018 66.6293C395.964 66.7357 395.889 66.8302 395.798 66.9072C395.707 66.9841 395.602 67.0419 395.488 67.0771C395.374 67.1123 395.255 67.1242 395.136 67.112C395.018 67.0999 394.903 67.0639 394.798 67.0063C394.694 66.9487 394.603 66.8707 394.529 66.7769H394.528ZM387.934 60.6762C386.715 59.7984 385.445 58.9957 384.129 58.2727C384.022 58.2197 383.926 58.1457 383.849 58.0551C383.771 57.9644 383.713 57.859 383.677 57.7452C383.641 57.6313 383.628 57.5114 383.64 57.3925C383.651 57.2737 383.686 57.1584 383.744 57.0536C383.801 56.9488 383.878 56.8566 383.972 56.7826C384.066 56.7085 384.173 56.6542 384.288 56.6228C384.404 56.5914 384.524 56.5836 384.642 56.5999C384.76 56.6161 384.874 56.6561 384.976 56.7175C386.356 57.4772 387.688 58.3205 388.965 59.2426C389.059 59.3106 389.14 59.3966 389.201 59.4956C389.262 59.5947 389.303 59.7048 389.322 59.8197C389.341 59.9347 389.336 60.0522 389.31 60.1655C389.283 60.2789 389.234 60.3859 389.166 60.4804C389.098 60.5749 389.012 60.655 388.913 60.7163C388.814 60.7776 388.704 60.8187 388.59 60.8375C388.475 60.8562 388.357 60.852 388.244 60.8253C388.131 60.7986 388.024 60.7499 387.929 60.6818L387.934 60.6762ZM380.061 56.3626C378.667 55.8094 377.241 55.3429 375.789 54.9657C375.562 54.9067 375.367 54.7596 375.248 54.5569C375.129 54.3542 375.095 54.1125 375.154 53.8848C375.213 53.6572 375.36 53.4624 375.563 53.3432C375.766 53.2241 376.007 53.1903 376.235 53.2493C377.755 53.646 379.25 54.1366 380.711 54.7183C380.897 54.7929 381.053 54.9288 381.152 55.1037C381.252 55.2786 381.289 55.4821 381.257 55.6807C381.226 55.8794 381.127 56.0614 380.979 56.1969C380.83 56.3323 380.64 56.4132 380.439 56.4262C380.309 56.4344 380.178 56.4126 380.057 56.3626H380.061ZM371.375 54.1075C369.887 53.9136 368.389 53.8116 366.888 53.8021C366.653 53.8004 366.428 53.7054 366.263 53.538C366.099 53.3706 366.007 53.1444 366.009 52.9093C366.01 52.6742 366.105 52.4494 366.272 52.2843C366.44 52.1193 366.666 52.0275 366.901 52.0292C368.474 52.039 370.045 52.1461 371.604 52.3501C371.822 52.3793 372.021 52.4884 372.163 52.6561C372.305 52.8238 372.379 53.0383 372.372 53.2579C372.365 53.4775 372.276 53.6865 372.124 53.8446C371.971 54.0026 371.766 54.0983 371.546 54.1132C371.488 54.1164 371.429 54.1146 371.371 54.1075H371.375ZM356.899 54.198C356.843 53.9697 356.88 53.7285 357.002 53.5275C357.124 53.3265 357.32 53.1822 357.549 53.1263C358.877 52.8031 360.221 52.5511 361.575 52.3713C361.782 52.3417 361.987 52.3176 362.193 52.2922C362.426 52.2652 362.661 52.3321 362.845 52.4782C363.029 52.6243 363.148 52.8376 363.175 53.0712C363.202 53.3048 363.135 53.5396 362.989 53.7238C362.843 53.9081 362.63 54.0268 362.396 54.0538C362.203 54.0764 362.011 54.1005 361.814 54.1273C360.52 54.2995 359.237 54.5402 357.968 54.8484C357.918 54.8612 357.866 54.8692 357.814 54.8724C357.606 54.8866 357.4 54.8267 357.231 54.7033C357.063 54.5799 356.944 54.4009 356.894 54.198H356.899Z" fill="#BDD0FB"/>
</g>
<g opacity="0.3">
<path d="M368.519 128.556C366.974 128.633 365.426 128.618 363.883 128.509C363.767 128.501 363.653 128.47 363.549 128.418C363.445 128.366 363.352 128.294 363.276 128.206C363.2 128.118 363.142 128.016 363.105 127.905C363.068 127.795 363.053 127.678 363.061 127.562C363.069 127.446 363.1 127.333 363.152 127.229C363.204 127.124 363.276 127.032 363.364 126.955C363.452 126.879 363.554 126.821 363.664 126.784C363.775 126.747 363.891 126.732 364.007 126.74C365.479 126.844 366.956 126.859 368.43 126.785C368.664 126.772 368.895 126.852 369.07 127.009C369.245 127.165 369.351 127.385 369.365 127.62C369.378 127.854 369.298 128.085 369.142 128.26C368.986 128.436 368.766 128.542 368.531 128.556H368.519ZM372.107 127.32C372.068 127.088 372.122 126.85 372.258 126.658C372.393 126.467 372.599 126.336 372.831 126.296C374.286 126.045 375.725 125.707 377.14 125.285C377.253 125.245 377.373 125.229 377.493 125.237C377.613 125.245 377.73 125.277 377.836 125.331C377.943 125.386 378.038 125.461 378.115 125.553C378.192 125.646 378.249 125.752 378.283 125.867C378.318 125.982 378.328 126.103 378.315 126.222C378.301 126.341 378.264 126.457 378.204 126.561C378.145 126.665 378.065 126.756 377.969 126.829C377.873 126.901 377.764 126.953 377.648 126.982C376.163 127.426 374.653 127.78 373.126 128.042C373.095 128.042 373.063 128.051 373.031 128.054C372.814 128.066 372.6 127.998 372.43 127.863C372.26 127.727 372.145 127.534 372.107 127.32ZM359.282 127.898C357.763 127.6 356.264 127.211 354.792 126.732C354.681 126.696 354.579 126.638 354.49 126.563C354.402 126.487 354.329 126.394 354.276 126.291C354.224 126.187 354.192 126.074 354.183 125.958C354.173 125.842 354.187 125.725 354.223 125.614C354.259 125.503 354.317 125.401 354.392 125.312C354.468 125.224 354.56 125.151 354.664 125.098C354.768 125.045 354.881 125.013 354.997 125.004C355.113 124.995 355.23 125.009 355.34 125.045C356.744 125.502 358.174 125.874 359.623 126.159C359.74 126.178 359.852 126.221 359.952 126.284C360.053 126.347 360.139 126.43 360.207 126.528C360.275 126.625 360.322 126.735 360.347 126.852C360.371 126.968 360.372 127.088 360.349 127.204C360.326 127.321 360.28 127.432 360.214 127.53C360.147 127.628 360.062 127.712 359.962 127.777C359.863 127.842 359.752 127.886 359.635 127.907C359.518 127.927 359.398 127.925 359.282 127.898ZM380.838 124.929C380.791 124.822 380.765 124.708 380.763 124.591C380.76 124.475 380.781 124.359 380.823 124.251C380.865 124.142 380.929 124.043 381.009 123.959C381.09 123.875 381.186 123.808 381.293 123.761C382.645 123.168 383.959 122.493 385.229 121.739C385.431 121.619 385.673 121.585 385.901 121.643C386.128 121.701 386.324 121.847 386.444 122.05C386.564 122.252 386.598 122.494 386.54 122.722C386.482 122.95 386.336 123.145 386.134 123.265C384.801 124.055 383.423 124.763 382.005 125.386C381.79 125.479 381.546 125.484 381.327 125.398C381.109 125.313 380.933 125.144 380.838 124.929ZM350.48 125.031C349.078 124.376 347.717 123.637 346.404 122.818C346.305 122.757 346.219 122.676 346.152 122.581C346.084 122.487 346.036 122.379 346.009 122.266C345.983 122.153 345.98 122.035 345.999 121.92C346.018 121.805 346.059 121.695 346.121 121.597C346.183 121.498 346.263 121.412 346.358 121.345C346.452 121.277 346.559 121.229 346.673 121.202C346.786 121.176 346.904 121.172 347.018 121.191C347.133 121.211 347.243 121.252 347.342 121.314C348.594 122.095 349.892 122.8 351.23 123.423C351.409 123.507 351.554 123.647 351.644 123.822C351.734 123.998 351.763 124.198 351.726 124.392C351.689 124.585 351.589 124.761 351.442 124.891C351.294 125.022 351.107 125.099 350.911 125.111C350.762 125.121 350.614 125.092 350.48 125.028V125.031ZM342.623 120.13C341.418 119.158 340.272 118.115 339.192 117.006C339.111 116.922 339.047 116.824 339.004 116.715C338.961 116.607 338.94 116.492 338.942 116.375C338.943 116.259 338.968 116.144 339.014 116.037C339.06 115.93 339.127 115.833 339.21 115.752C339.294 115.671 339.392 115.607 339.501 115.564C339.609 115.521 339.724 115.5 339.841 115.501C339.957 115.503 340.072 115.528 340.179 115.574C340.286 115.62 340.382 115.687 340.464 115.77C341.494 116.828 342.587 117.823 343.736 118.751C343.829 118.823 343.907 118.913 343.965 119.015C344.022 119.118 344.059 119.231 344.073 119.348C344.087 119.465 344.077 119.584 344.044 119.697C344.012 119.81 343.957 119.916 343.883 120.008C343.809 120.099 343.717 120.175 343.614 120.231C343.51 120.287 343.396 120.322 343.279 120.333C343.162 120.345 343.044 120.333 342.931 120.298C342.819 120.263 342.714 120.206 342.624 120.13H342.623ZM336.163 113.485C335.225 112.252 334.363 110.964 333.581 109.627C333.463 109.424 333.43 109.182 333.489 108.955C333.549 108.727 333.696 108.533 333.899 108.414C334.102 108.295 334.344 108.262 334.571 108.322C334.798 108.382 334.993 108.529 335.111 108.732C335.856 110.007 336.678 111.234 337.573 112.408C337.643 112.501 337.695 112.607 337.724 112.72C337.754 112.832 337.761 112.95 337.745 113.065C337.73 113.181 337.691 113.292 337.633 113.393C337.574 113.494 337.496 113.582 337.403 113.652C337.31 113.723 337.205 113.774 337.092 113.804C336.979 113.834 336.862 113.841 336.746 113.825C336.631 113.809 336.52 113.771 336.419 113.712C336.318 113.654 336.23 113.576 336.16 113.483L336.163 113.485Z" fill="#BDD0FB"/>
<path d="M389.522 120.812C389.698 120.801 389.867 120.737 390.006 120.628C390.607 120.164 391.195 119.681 391.757 119.19C391.847 119.115 391.921 119.022 391.975 118.917C392.029 118.812 392.061 118.698 392.07 118.58C392.079 118.463 392.065 118.345 392.028 118.233C391.991 118.121 391.932 118.018 391.855 117.929C391.777 117.84 391.683 117.768 391.577 117.716C391.472 117.664 391.357 117.634 391.239 117.627C391.122 117.62 391.004 117.636 390.893 117.675C390.782 117.714 390.68 117.775 390.593 117.854C390.057 118.322 389.495 118.783 388.923 119.227C388.773 119.343 388.665 119.504 388.613 119.687C388.562 119.869 388.57 120.064 388.637 120.241C388.704 120.418 388.826 120.569 388.986 120.672C389.145 120.775 389.333 120.824 389.522 120.812Z" fill="#BDD0FB"/>
</g>
<path d="M391.873 104.102C391.927 104.026 391.956 103.935 391.956 103.841C391.956 103.748 391.927 103.657 391.873 103.58L388.712 99.1267C389.698 96.7357 390.288 94.2 390.458 91.6193L395.255 89.0192C395.337 88.9748 395.404 88.9059 395.445 88.822C395.486 88.7381 395.5 88.6434 395.484 88.5513L394.413 82.0872C394.398 81.995 394.355 81.9098 394.289 81.8436C394.223 81.7774 394.138 81.7336 394.046 81.7182L388.667 80.8063C387.675 78.4186 386.3 76.2085 384.598 74.2631L386.152 69.0319C386.179 68.9424 386.177 68.8467 386.147 68.7583C386.117 68.6698 386.06 68.5929 385.984 68.5385L380.657 64.7212C380.581 64.667 380.49 64.638 380.397 64.638C380.304 64.638 380.213 64.667 380.137 64.7212L375.686 67.8853C373.297 66.8978 370.762 66.3071 368.182 66.1364L365.584 61.3365C365.539 61.2546 365.47 61.1886 365.387 61.1475C365.303 61.1065 365.208 61.0925 365.116 61.1074L358.655 62.1791C358.563 62.1947 358.478 62.2384 358.412 62.3043C358.346 62.3701 358.302 62.4548 358.286 62.5467L357.376 67.9306C354.987 68.9234 352.775 70.3003 350.829 72.0066L345.601 70.4514C345.512 70.4246 345.416 70.4264 345.328 70.4566C345.24 70.4868 345.163 70.5438 345.109 70.6197L341.294 75.9498C341.24 76.0258 341.211 76.1167 341.211 76.21C341.211 76.3032 341.24 76.3942 341.294 76.4701L344.457 80.9237C343.47 83.3149 342.88 85.8512 342.71 88.4325L337.906 91.0325C337.824 91.0773 337.758 91.1463 337.717 91.2301C337.676 91.3139 337.662 91.4084 337.677 91.5005L338.75 97.966C338.765 98.058 338.809 98.143 338.875 98.2091C338.94 98.2752 339.025 98.3192 339.117 98.335L344.496 99.2455C345.49 101.634 346.867 103.844 348.572 105.789L347.018 111.02C346.992 111.109 346.994 111.205 347.025 111.293C347.055 111.381 347.112 111.458 347.188 111.512L352.513 115.329C352.589 115.383 352.68 115.412 352.774 115.412C352.867 115.412 352.958 115.383 353.034 115.329L357.485 112.165C359.875 113.152 362.409 113.742 364.989 113.913L367.588 118.72C367.632 118.802 367.701 118.868 367.785 118.909C367.868 118.95 367.963 118.964 368.055 118.949L374.515 117.876C374.607 117.861 374.693 117.817 374.759 117.751C374.825 117.685 374.869 117.6 374.884 117.508L375.795 112.125C378.183 111.129 380.393 109.75 382.337 108.042L387.565 109.598C387.654 109.624 387.75 109.622 387.838 109.591C387.927 109.561 388.003 109.504 388.058 109.428L391.873 104.102Z" fill="#BDD0FB"/>
<path d="M366.029 96.709C364.307 96.5637 362.708 95.7558 361.568 94.4553C360.429 93.1547 359.837 91.4628 359.919 89.7351C360 88.0074 360.747 86.3785 362.004 85.1909C363.261 84.0032 364.928 83.3493 366.657 83.3666C368.385 83.3839 370.04 84.0711 371.272 85.2836C372.505 86.4962 373.22 88.1397 373.267 89.8686C373.313 91.5976 372.688 93.2774 371.523 94.5549C370.358 95.8324 368.743 96.6081 367.018 96.7189C366.689 96.7402 366.358 96.7368 366.029 96.709ZM361.672 89.6186C361.563 90.9224 361.977 92.2158 362.822 93.2144C363.666 94.2129 364.873 94.8348 366.176 94.9431C367.466 95.0283 368.737 94.6032 369.717 93.7592C370.696 92.9152 371.305 91.72 371.412 90.4311C371.519 89.1421 371.116 87.8627 370.289 86.8684C369.463 85.8742 368.279 85.2447 366.993 85.1156C366.752 85.0949 366.51 85.0925 366.269 85.1085C365.091 85.1854 363.979 85.6824 363.135 86.5093C362.292 87.3363 361.772 88.4385 361.672 89.6158V89.6186Z" fill="url(#paint7_linear_127_29)"/>
<path d="M367.522 106.606C368.082 106.571 368.644 106.507 369.208 106.413C370.329 106.227 371.428 105.928 372.489 105.52L372.63 105.465C372.845 105.376 373.016 105.206 373.107 104.992C373.197 104.778 373.2 104.536 373.115 104.32C373.029 104.104 372.862 103.93 372.65 103.836C372.437 103.741 372.196 103.734 371.979 103.816C370.991 104.207 369.965 104.491 368.917 104.665L368.745 104.693C366.302 105.078 363.801 104.843 361.472 104.009C360.207 103.555 359.007 102.932 357.908 102.158L357.881 102.138L357.797 102.08C356.201 100.943 354.845 99.5012 353.81 97.8369C352.774 96.1726 352.078 94.3192 351.763 92.3841C351.679 91.8784 351.62 91.3687 351.588 90.8571C351.353 87.0386 352.593 83.2758 355.051 80.3456C357.509 77.4153 360.997 75.5414 364.796 75.1107C368.595 74.6799 372.414 75.7253 375.465 78.031C378.516 80.3366 380.566 83.7265 381.191 87.5007C381.634 90.1624 381.346 92.8945 380.359 95.4054C380.273 95.6243 380.277 95.8682 380.371 96.0838C380.464 96.2995 380.639 96.4693 380.858 96.5563C381.077 96.6424 381.321 96.638 381.536 96.5442C381.752 96.4503 381.921 96.2747 382.008 96.0558C382.922 93.7294 383.303 91.2272 383.122 88.7339C382.941 86.2405 382.204 83.8196 380.963 81.6497C379.722 79.4798 378.011 77.6163 375.954 76.1967C373.898 74.777 371.549 73.8374 369.082 73.4472C366.614 73.057 364.09 73.2262 361.697 73.9422C359.303 74.6582 357.1 75.9028 355.252 77.5842C353.403 79.2656 351.955 81.3409 351.015 83.657C350.074 85.973 349.666 88.4708 349.819 90.966C349.855 91.5315 349.92 92.1004 350.014 92.6725C350.695 96.7497 352.861 100.43 356.095 103.003C359.328 105.576 363.399 106.859 367.522 106.606Z" fill="url(#paint8_linear_127_29)"/>
<path d="M283.739 50.9433L67.2382 49.6172C65.5524 49.6068 63.8823 49.9407 62.3299 50.5985C60.7776 51.2563 59.3757 52.2242 58.2101 53.4428C57.0444 54.6615 56.1396 56.1053 55.5508 57.686C54.9621 59.2667 54.7019 60.9509 54.7861 62.6357L69.2841 362.254C69.3908 364.457 70.3399 366.534 71.9349 368.055C73.5299 369.576 75.6486 370.425 77.8521 370.426H302.394C304.606 370.426 306.734 369.575 308.337 368.049C309.939 366.522 310.894 364.437 311.003 362.226L323.98 95.4366L283.739 50.9433Z" fill="#91B3FA"/>
<path d="M292.741 94.109C291.068 94.0501 289.425 93.6529 287.91 92.9412C286.395 92.2296 285.04 91.2183 283.926 89.9683C282.813 88.7183 281.963 87.2556 281.43 85.6683C280.897 84.081 280.69 82.4021 280.823 80.7327L283.15 51.3477L324.03 95.2471L292.741 94.109Z" fill="#7D97F4"/>
<path d="M103.824 106.323C133.828 107.171 249.012 110.282 278.097 111.065C281.771 111.164 284.681 113.519 284.541 116.265C284.407 118.879 281.536 120.883 278.042 120.799L103.85 116.692C100.494 116.613 97.6951 114.631 97.3913 112.118L97.3151 111.482C96.9689 108.609 99.9883 106.214 103.824 106.323Z" fill="url(#paint9_linear_127_29)"/>
<path d="M100.375 136.756C100.85 137.42 101.759 137.853 102.753 137.887L222.287 142.083C223.789 142.137 225.035 141.28 225.093 140.156L225.395 134.26C225.456 133.088 224.204 132.084 222.639 132.048L106.369 129.33C101.189 129.21 97.8958 133.29 100.375 136.756Z" fill="url(#paint10_linear_127_29)"/>
<path d="M100.883 159.654C130.886 160.502 246.069 163.613 275.155 164.396C278.829 164.495 281.74 166.85 281.598 169.596C281.457 172.21 278.595 174.214 275.099 174.13L100.907 170.03C97.551 169.951 94.752 167.967 94.4483 165.456L94.3719 164.82C94.03 161.942 97.048 159.547 100.883 159.654Z" fill="url(#paint11_linear_127_29)"/>
<path d="M97.4351 190.088C97.9113 190.753 98.8198 191.185 99.8145 191.219L219.348 195.415C220.85 195.469 222.096 194.612 222.154 193.488L222.456 187.593C222.517 186.421 221.265 185.417 219.7 185.38L103.426 182.67C98.2504 182.543 94.9555 186.628 97.4351 190.088Z" fill="url(#paint12_linear_127_29)"/>
<path d="M111.762 287.09C112.784 274.051 117.201 261.269 124.137 250.057C127.619 244.429 131.738 239.221 136.412 234.536C137.614 233.405 138.789 232.227 140.021 231.119C141.292 230.053 142.526 228.946 143.823 227.912C145.15 226.923 146.462 225.898 147.826 224.943L149.904 223.571L150.945 222.885L151.465 222.543C151.653 222.425 151.908 222.274 152.132 222.154C155.787 220.136 161.034 220.042 164.574 223.603C165.386 224.44 166.034 225.421 166.486 226.496C166.696 226.99 166.87 227.499 167.006 228.018C167.143 228.511 167.249 229.011 167.325 229.516C167.638 231.495 167.549 233.326 167.365 235.099C167.272 235.984 167.128 236.853 166.974 237.7L166.497 240.091C166.194 241.687 165.838 243.274 165.489 244.861C164.782 248.034 163.995 251.187 163.162 254.334C159.774 266.89 155.278 279.121 149.726 290.88L147.607 295.263C146.862 296.707 146.136 298.16 145.377 299.595L144.224 301.741L143.648 302.814L143.013 303.934C142.13 305.45 141.126 306.892 140.011 308.246C138.863 309.616 137.565 310.932 135.947 312.041C134.329 313.149 132.323 314.02 130.081 314.133C129.525 314.171 128.967 314.151 128.416 314.073C127.851 314.043 127.34 313.861 126.806 313.735C125.746 313.438 124.747 312.958 123.853 312.318C122.141 311.079 120.81 309.386 120.008 307.43C119.278 305.624 118.9 303.695 118.896 301.747C118.873 299.861 119.156 298.071 119.542 296.374C119.931 294.736 120.407 293.119 120.969 291.532L121.767 289.185L122.666 286.876C125.076 280.723 128.265 274.904 131.991 269.475C135.717 264.046 140.087 259.069 144.912 254.604L145.814 253.756L146.755 252.957L148.637 251.365C149.278 250.85 149.937 250.358 150.585 249.854C151.234 249.349 151.876 248.838 152.563 248.38C153.911 247.439 155.248 246.477 156.649 245.626L157.691 244.967L158.211 244.639C158.304 244.583 158.372 244.535 158.485 244.47L158.828 244.279C159.756 243.784 160.77 243.47 161.815 243.354C163.898 243.108 166.148 243.729 167.769 245.208C168.628 245.979 169.254 246.976 169.576 248.085C169.897 249.176 169.886 250.224 169.792 251.167C169.688 252.057 169.515 252.938 169.274 253.801L168.621 256.14L167.321 260.771C165.602 266.95 163.813 273.11 162.061 279.281V279.295L159.354 278.81C159.556 276.735 160.114 274.637 161.26 272.755C161.842 271.797 162.583 270.945 163.45 270.234C164.346 269.514 165.376 268.981 166.48 268.665C167.602 268.337 168.781 268.261 169.935 268.44C170.834 268.585 171.696 268.909 172.467 269.394L173.014 269.738C174.338 270.484 175.992 270.624 177.35 270.02C177.863 269.806 178.331 269.497 178.729 269.109L178.934 268.908L179.181 268.645L181.159 266.54L185.104 262.329L189.049 258.119L191.027 256.014C191.551 255.455 192.232 255.066 192.98 254.9C193.741 254.742 194.533 254.831 195.24 255.154C195.936 255.467 196.521 255.983 196.92 256.633C197.326 257.308 197.498 258.097 197.409 258.88C197.397 259.067 197.362 259.253 197.306 259.432C197.261 259.601 197.199 259.821 197.165 259.902L196.928 260.566L196.481 261.904C195.902 263.692 195.411 265.51 195.003 267.346C194.595 269.181 194.275 271.037 194.044 272.903C194.018 273.132 193.983 273.378 193.965 273.595L193.948 274.16C193.934 274.349 193.946 274.54 193.983 274.726C193.996 274.911 194.026 275.094 194.072 275.274C194.249 275.994 194.598 276.661 195.088 277.217C195.583 277.786 196.207 278.229 196.908 278.509C197.256 278.654 197.617 278.764 197.987 278.836C198.356 278.889 198.73 278.903 199.102 278.878C199.845 278.838 200.566 278.607 201.195 278.209L201.439 278.068L201.658 277.886L202.103 277.522L203.122 276.524C205.836 273.857 208.427 271.072 210.893 268.17C215.818 262.361 220.215 256.124 224.033 249.534L225.43 247.046L226.104 245.787L226.442 245.16L226.527 245.003C226.527 244.984 226.527 244.994 226.527 244.994C226.527 244.994 226.527 245.007 226.527 245.023C226.527 245.129 226.569 245.15 226.558 245.14C226.577 245.15 226.6 245.154 226.622 245.15C226.663 245.14 226.719 245.13 226.719 245.122C226.719 245.113 226.719 245.122 226.719 245.122L226.598 245.246L226.354 245.492C226.191 245.655 226.032 245.823 225.876 245.992C225.558 246.326 225.252 246.674 224.947 247.02C223.741 248.422 222.648 249.919 221.681 251.495C221.197 252.284 220.745 253.091 220.324 253.916C220.116 254.328 219.912 254.744 219.719 255.165L219.437 255.799L219.296 256.117L219.205 256.4C218.657 257.89 218.64 259.534 219.328 260.948C220.016 262.362 221.204 263.547 222.679 264.081C223.399 264.401 224.184 264.466 224.953 264.487C225.72 264.413 226.499 264.29 227.214 263.921L227.756 263.672L228.366 263.318C228.772 263.077 229.186 262.848 229.584 262.596C230.393 262.109 231.188 261.607 231.977 261.084C238.273 256.916 243.872 251.781 248.57 245.868C248.683 245.726 248.822 245.608 248.98 245.52C249.139 245.432 249.313 245.376 249.493 245.355C249.673 245.334 249.855 245.349 250.029 245.399C250.203 245.449 250.366 245.533 250.508 245.645C250.65 245.758 250.768 245.898 250.856 246.056C250.944 246.214 251 246.389 251.02 246.569C251.041 246.749 251.026 246.931 250.976 247.105C250.926 247.28 250.843 247.442 250.73 247.584C245.844 253.734 240.016 259.071 233.464 263.4C232.646 263.938 231.82 264.464 230.982 264.97C230.568 265.232 230.134 265.469 229.71 265.718L229.074 266.089L228.31 266.449C227.3 266.952 226.15 267.172 225.009 267.256C223.865 267.248 222.699 267.115 221.645 266.665C219.498 265.867 217.76 264.181 216.785 262.116C215.784 260.046 215.796 257.539 216.581 255.445L216.723 255.045L216.872 254.703L217.179 254.019C217.385 253.565 217.603 253.117 217.83 252.671C218.285 251.783 218.773 250.912 219.294 250.059C220.34 248.355 221.521 246.738 222.826 245.225C223.156 244.849 223.485 244.473 223.831 244.111C224.001 243.927 224.172 243.746 224.35 243.569L224.612 243.302L224.744 243.161C224.829 243.084 224.923 243.005 225.015 242.93C225.424 242.612 225.92 242.425 226.438 242.396C226.942 242.372 227.442 242.49 227.882 242.736C228.323 242.98 228.686 243.345 228.928 243.787C229.17 244.229 229.282 244.731 229.25 245.235C229.23 245.485 229.174 245.731 229.084 245.966C229.042 246.073 228.99 246.195 228.943 246.287L228.857 246.446L228.512 247.09L227.823 248.375L226.394 250.92C222.495 257.655 218.003 264.028 212.971 269.964C210.455 272.927 207.808 275.772 205.028 278.499L203.986 279.52L203.32 280.074L202.979 280.346L202.6 280.57C201.593 281.199 200.445 281.564 199.26 281.634C198.673 281.673 198.083 281.648 197.501 281.559C196.926 281.452 196.364 281.286 195.824 281.061C194.734 280.62 193.763 279.928 192.99 279.042C192.204 278.149 191.646 277.08 191.363 275.925C191.293 275.639 191.246 275.347 191.222 275.054C191.173 274.765 191.154 274.471 191.167 274.179L191.2 273.306L191.284 272.564C191.527 270.612 191.862 268.675 192.287 266.752C192.713 264.829 193.229 262.931 193.833 261.058L194.302 259.66L194.55 258.964C194.576 258.892 194.597 258.819 194.613 258.744C194.635 258.695 194.645 258.643 194.643 258.59C194.669 258.408 194.632 258.224 194.538 258.067C194.427 257.893 194.267 257.756 194.079 257.672C193.669 257.511 193.373 257.569 193.019 257.905L191.041 260.011L187.096 264.221L183.152 268.431L181.173 270.537L180.928 270.799L180.618 271.105C180.406 271.311 180.182 271.503 179.946 271.68C179.473 272.037 178.957 272.334 178.411 272.564C176.224 273.518 173.654 273.284 171.629 272.14L170.952 271.716C170.804 271.622 170.65 271.54 170.49 271.468C170.165 271.317 169.819 271.213 169.465 271.16C168.711 271.047 167.943 271.101 167.212 271.316C165.695 271.74 164.451 272.775 163.583 274.197C162.714 275.619 162.24 277.319 162.075 279.063L159.368 278.578V278.564C160.922 272.343 162.432 266.107 164.016 259.892L165.195 255.226L165.775 252.915C165.95 252.228 166.07 251.53 166.137 250.825C166.185 250.177 166.153 249.588 165.996 249.141C165.855 248.706 165.593 248.319 165.241 248.027C164.829 247.689 164.349 247.442 163.834 247.303C163.32 247.164 162.781 247.135 162.254 247.22C161.704 247.296 161.174 247.477 160.692 247.754L160.512 247.86L160.279 248.013L159.793 248.339L158.818 248.993C157.501 249.841 156.258 250.785 155.003 251.713C154.366 252.164 153.771 252.674 153.166 253.163C152.562 253.653 151.949 254.143 151.354 254.648L149.604 256.203L148.73 256.981L147.882 257.794C143.368 262.107 139.283 266.882 135.851 272.095C132.419 277.307 129.48 282.84 127.306 288.673L126.495 290.859L125.78 293.079C125.292 294.522 124.883 295.991 124.553 297.478C123.92 300.343 123.899 303.093 124.873 305.331C125.306 306.357 126.016 307.241 126.923 307.886C127.336 308.179 127.801 308.391 128.293 308.512C128.771 308.65 129.269 308.703 129.764 308.667C130.733 308.612 131.775 308.207 132.805 307.494C133.835 306.781 134.814 305.797 135.711 304.706C136.63 303.579 137.457 302.379 138.184 301.119L138.726 300.142L139.28 299.092L140.387 296.991C141.114 295.587 141.809 294.163 142.524 292.749L144.56 288.461C149.866 276.963 154.186 265.034 157.474 252.804C158.277 249.743 159.041 246.674 159.714 243.582C160.049 242.037 160.392 240.493 160.683 238.937L161.14 236.61C161.271 235.879 161.387 235.165 161.459 234.456C161.6 233.042 161.647 231.644 161.443 230.447C161.24 229.251 160.854 228.28 160.299 227.74C160.043 227.433 159.69 227.242 159.297 227.033C158.854 226.873 158.407 226.702 157.912 226.682C156.869 226.608 155.825 226.835 154.907 227.338C154.78 227.406 154.688 227.459 154.536 227.552L154.051 227.869L153.08 228.501L151.138 229.762C149.866 230.628 148.645 231.59 147.383 232.483C146.154 233.422 144.981 234.433 143.775 235.403C142.603 236.415 141.486 237.49 140.336 238.529C126.74 251.663 117.689 268.796 114.5 287.435C114.444 287.788 114.252 288.105 113.967 288.32C113.681 288.534 113.323 288.63 112.969 288.586C112.614 288.542 112.29 288.363 112.065 288.085C111.84 287.807 111.732 287.453 111.762 287.097V287.09Z" fill="url(#paint13_linear_127_29)"/>
<path d="M255.304 245.123C255.006 245.121 254.717 245.023 254.48 244.843C254.242 244.663 254.069 244.411 253.987 244.125C253.904 243.839 253.916 243.534 254.021 243.255C254.126 242.976 254.318 242.739 254.569 242.578L268.351 233.94C268.504 233.843 268.675 233.778 268.854 233.748C269.032 233.718 269.215 233.723 269.392 233.764C269.568 233.804 269.735 233.879 269.883 233.984C270.03 234.089 270.156 234.222 270.252 234.376C270.348 234.529 270.413 234.7 270.443 234.879C270.473 235.058 270.468 235.241 270.428 235.417C270.387 235.594 270.312 235.761 270.207 235.909C270.102 236.056 269.969 236.182 269.816 236.278L256.034 244.918C255.815 245.054 255.562 245.125 255.304 245.123Z" fill="url(#paint14_linear_127_29)"/>
<path d="M320.472 393.121C324.728 393.489 332.113 394.087 337.934 394.343C341.436 394.497 343.445 394.155 344.611 393.69C344.611 393.821 344.611 393.944 344.599 394.059C344.582 394.355 344.455 394.635 344.244 394.843C344.033 395.052 343.753 395.176 343.456 395.19C335.84 395.624 328.206 395.632 320.589 395.214C320.442 395.206 320.3 395.161 320.175 395.083C320.051 395.004 319.948 394.895 319.878 394.765C319.808 394.636 319.772 394.49 319.775 394.343C319.777 394.196 319.817 394.052 319.891 393.924C320.065 393.643 320.259 393.374 320.472 393.121Z" fill="url(#paint15_linear_127_29)"/>
<path d="M337.934 394.343C332.113 394.087 324.728 393.495 320.472 393.121C324.656 387.985 337.934 384.522 337.934 384.522H341.686C344.266 388.244 344.639 391.787 344.611 393.69C343.451 394.155 341.436 394.497 337.934 394.343Z" fill="url(#paint16_linear_127_29)"/>
<path d="M342.317 378.396L341.966 385.345C341.948 385.713 341.803 386.062 341.556 386.335C341.31 386.607 340.976 386.785 340.612 386.838C339.667 386.98 338.703 386.9 337.795 386.605C337.474 386.5 337.188 386.31 336.966 386.056C336.744 385.802 336.594 385.493 336.533 385.161L335.321 378.396H342.317Z" fill="url(#paint17_linear_127_29)"/>
<path d="M391.032 394.291C392.877 394.033 393.717 393.075 394.061 392.048C394.064 392.057 394.067 392.067 394.068 392.076C394.34 393.158 393.711 394.279 392.452 394.812C390.932 395.457 389.269 395.567 387.977 395.519C386.593 395.463 385.321 394.889 384.623 393.964L384.612 393.95C386.002 394.64 387.953 394.72 391.032 394.291Z" fill="url(#paint18_linear_127_29)"/>
<path d="M382.337 378.351H385.43C390.141 378.255 393.099 388.198 394.067 392.048C393.718 393.075 392.883 394.027 391.038 394.29C387.959 394.715 386.008 394.64 384.617 393.951C382.074 390.6 380.811 385.692 380.203 382.826C379.511 379.568 382.337 378.351 382.337 378.351Z" fill="url(#paint19_linear_127_29)"/>
<path d="M385.021 371.901L386.74 378.735C386.84 379.144 386.8 379.574 386.625 379.956C386.449 380.338 386.15 380.65 385.775 380.839C384.814 381.333 383.462 381.85 382.218 381.7C381.933 381.662 381.663 381.545 381.44 381.363C381.217 381.18 381.049 380.939 380.955 380.667L378.433 373.476L385.021 371.901Z" fill="url(#paint20_linear_127_29)"/>
<path d="M387.075 373.876C384.938 375.774 377.988 376.024 377.988 376.024C352.951 315.895 342.71 307.354 342.71 307.354C346.324 330.049 343.292 380.292 343.292 380.292C339.161 382.117 333.836 380.292 333.836 380.292C333.53 348.184 329.235 316.237 321.05 285.19C337.971 284.809 346.97 279.015 349.909 276.69C364.014 299.452 387.075 373.876 387.075 373.876Z" fill="url(#paint21_linear_127_29)"/>
<path d="M345.611 207.542C348.814 223.528 347.667 252.141 346.912 265.192C346.7 268.86 349.259 273.945 351.328 277.415C351.404 277.543 351.454 277.685 351.474 277.833C351.493 277.981 351.482 278.132 351.441 278.275C351.399 278.419 351.329 278.552 351.234 278.667C351.139 278.783 351.021 278.877 350.888 278.945C347.425 280.726 335.694 286.246 322.097 286.933C321.655 286.95 321.221 286.815 320.866 286.551C320.511 286.288 320.257 285.91 320.146 285.482C310.06 247.799 298.344 223.719 298.344 223.719C311.278 203.052 345.611 207.542 345.611 207.542Z" fill="url(#paint22_linear_127_29)"/>
<path d="M341.002 305.931C341.144 305.931 341.284 305.893 341.407 305.821C341.529 305.749 341.631 305.645 341.7 305.521C341.77 305.397 341.805 305.257 341.803 305.115C341.8 304.972 341.76 304.833 341.686 304.712C341.552 304.49 338.313 299.252 331.759 296.087C331.664 296.042 331.561 296.015 331.456 296.009C331.351 296.003 331.245 296.018 331.146 296.053C331.047 296.087 330.955 296.141 330.877 296.211C330.798 296.282 330.734 296.367 330.688 296.461C330.643 296.556 330.616 296.659 330.61 296.764C330.604 296.87 330.619 296.975 330.654 297.074C330.688 297.174 330.742 297.265 330.812 297.344C330.882 297.423 330.967 297.487 331.062 297.532C337.172 300.483 340.286 305.495 340.317 305.546C340.388 305.664 340.489 305.761 340.609 305.828C340.729 305.895 340.864 305.931 341.002 305.931Z" fill="url(#paint23_linear_127_29)"/>
<path d="M365.701 253.422C364.673 260.87 361.632 268.993 355.552 277.621L353.241 275.735C353.241 275.735 355.908 264.902 354.392 252.608C358.142 251.875 362.573 252.63 365.701 253.422Z" fill="url(#paint24_linear_127_29)"/>
<path d="M342.033 227.268L345.611 207.542C345.611 207.542 369.513 225.824 365.701 253.422C362.573 252.63 358.142 251.875 354.398 252.608C353.299 243.747 350.035 234.133 342.033 227.268Z" fill="url(#paint25_linear_127_29)"/>
<path d="M297.971 223.877L311.783 240.893C313.273 252.898 308.297 259.509 302.046 263.142C300.625 258.908 298.542 254.927 295.873 251.347C302.237 240.279 297.971 223.877 297.971 223.877Z" fill="url(#paint26_linear_127_29)"/>
<path d="M295.873 251.347C298.542 254.927 300.625 258.908 302.046 263.142C285.834 274.664 277.724 267.544 277.724 267.544V265.269C277.719 264.286 278.039 263.329 278.634 262.547C279.229 261.764 280.065 261.201 281.013 260.944C287.53 259.23 293.553 255.383 295.873 251.347Z" fill="url(#paint27_linear_127_29)"/>
<path d="M306.846 199.172L311.299 215.557C311.418 215.991 311.626 216.395 311.911 216.742C312.196 217.09 312.552 217.373 312.954 217.573C313.357 217.773 313.797 217.886 314.246 217.904C314.695 217.922 315.142 217.845 315.559 217.678C317.47 216.913 319.893 215.871 321.98 214.743C322.505 214.457 322.966 214.065 323.331 213.591C323.696 213.117 323.959 212.572 324.101 211.991C324.244 211.41 324.263 210.805 324.158 210.216C324.054 209.627 323.827 209.066 323.493 208.57L314.234 194.754L306.846 199.172Z" fill="url(#paint28_linear_127_29)"/>
<path d="M297.101 186.723C297.06 187.006 300.816 205.421 300.816 205.421L311.271 203.052L310.303 185.068C310.303 185.068 297.781 182.014 297.101 186.723Z" fill="url(#paint29_linear_127_29)"/>
<path d="M307.958 189.076L309.208 198.502C309.225 198.622 309.225 198.744 309.208 198.864C309.102 199.602 308.553 202.116 306.015 201.399C303.712 200.746 301.601 200.184 300.143 200.631C299.827 200.727 299.558 200.938 299.389 201.222C299.221 201.506 299.164 201.843 299.23 202.167C299.572 203.839 300.411 207.596 301.632 210.747C301.754 211.055 301.986 211.307 302.284 211.452C302.581 211.597 302.923 211.625 303.24 211.53C305.218 210.952 309.375 209.613 312.462 207.754C312.668 207.632 312.836 207.456 312.95 207.246C313.064 207.035 313.119 206.798 313.109 206.559C313.009 204.18 312.731 196.945 312.968 194.918C313.187 193.013 315.523 191.874 316.537 191.465C316.701 191.399 316.85 191.3 316.974 191.175C317.099 191.049 317.197 190.9 317.262 190.736C317.732 189.558 318.38 186.832 314.948 185.715C314.777 185.661 314.619 185.573 314.484 185.456C314.348 185.339 314.237 185.197 314.158 185.036C314.079 184.876 314.033 184.701 314.023 184.522C314.013 184.343 314.039 184.164 314.1 183.996C314.608 182.582 314.823 180.418 312.167 179.227C309.468 178.017 307.453 179.456 306.364 180.627C306.15 180.854 305.863 180.999 305.553 181.035C305.243 181.072 304.93 180.998 304.669 180.826C304.358 180.63 303.962 180.566 303.473 180.867C303.317 180.96 303.142 181.02 302.961 181.042C302.78 181.063 302.597 181.047 302.422 180.994C302.248 180.941 302.087 180.852 301.949 180.732C301.811 180.613 301.699 180.466 301.621 180.302C300.975 178.974 299.658 177.552 297.016 178.004C292.327 178.809 291.797 184.007 293.033 187.053C294.269 190.098 299.304 188.939 301.829 187.402C303.749 186.234 306.24 187.458 307.323 188.109C307.496 188.211 307.643 188.351 307.753 188.519C307.862 188.686 307.933 188.877 307.958 189.076Z" fill="url(#paint30_linear_127_29)"/>
<path d="M313.386 198.355C313.386 198.355 311.459 192.953 313.439 191.631C315.418 190.309 318.353 190.994 317.707 194.906C316.907 199.777 313.386 198.355 313.386 198.355Z" fill="url(#paint31_linear_127_29)"/>
<path d="M390.926 231.509L214.968 289.292L223.366 315.236L400.338 258.863C402.157 258.281 403.715 257.078 404.737 255.463C405.759 253.848 406.181 251.925 405.929 250.03C405.397 246.011 403.589 240.488 398.665 233.932C397.789 232.771 396.572 231.912 395.184 231.478C393.796 231.043 392.307 231.054 390.926 231.509Z" fill="url(#paint32_linear_127_29)"/>
<path d="M168.227 317.114L189.097 304.692C191.108 307.332 192.875 311.393 192.983 317.541L168.939 319.365C167.662 319.462 167.128 317.77 168.227 317.114Z" fill="url(#paint33_linear_127_29)"/>
<path d="M214.968 289.292C225.679 301.331 223.366 315.236 223.366 315.236L192.988 317.541C192.881 311.393 191.113 307.331 189.103 304.692L214.968 289.292Z" fill="url(#paint34_linear_127_29)"/>
<path d="M394.027 239.058C394.123 238.984 394.19 238.878 394.216 238.76C394.241 238.641 394.224 238.517 394.167 238.41C394.11 238.303 394.017 238.22 393.905 238.175C393.792 238.13 393.668 238.126 393.553 238.164L225.438 293.743C225.312 293.789 225.209 293.881 225.15 294.002C225.092 294.122 225.083 294.26 225.125 294.387C225.167 294.514 225.256 294.62 225.375 294.681C225.494 294.743 225.632 294.756 225.76 294.717L393.875 239.138C393.93 239.12 393.982 239.093 394.027 239.058Z" fill="#91B3FA"/>
<path d="M397.909 248.782C398.005 248.708 398.071 248.602 398.097 248.484C398.123 248.365 398.105 248.242 398.049 248.135C397.992 248.028 397.899 247.944 397.786 247.899C397.674 247.854 397.549 247.85 397.434 247.888L229.317 303.467C229.192 303.513 229.089 303.606 229.03 303.726C228.972 303.846 228.962 303.985 229.004 304.112C229.046 304.238 229.136 304.344 229.255 304.406C229.374 304.467 229.512 304.48 229.64 304.442L397.755 248.863C397.81 248.845 397.862 248.818 397.909 248.782Z" fill="#91B3FA"/>
<path d="M354.193 275.407L343.404 274.528L338.731 278.837C338.731 278.837 339.836 280.367 343.292 279.488C346.748 278.608 351.487 278.393 351.487 278.393C351.487 278.393 356.259 280.545 356.317 276.519L354.193 275.407Z" fill="url(#paint35_linear_127_29)"/>
<path d="M284.899 272.051C283.966 272.78 280.769 271.258 278.812 270.213C278.35 269.964 277.989 269.563 277.791 269.077C277.592 268.591 277.569 268.052 277.724 267.551C278.196 266.066 278.98 264.147 279.947 263.906C281.55 263.497 288.745 269.045 284.899 272.051Z" fill="url(#paint36_linear_127_29)"/>
<defs>
<linearGradient id="paint0_linear_127_29" x1="422.651" y1="401.133" x2="133.765" y2="148.521" gradientUnits="userSpaceOnUse">
<stop stop-color="#DAE3FE"/>
<stop offset="1" stop-color="#E9EFFD"/>
</linearGradient>
<linearGradient id="paint1_linear_127_29" x1="43.5802" y1="106.207" x2="111.567" y2="106.207" gradientUnits="userSpaceOnUse">
<stop stop-color="#FEBBBA"/>
<stop offset="1" stop-color="#FF928E"/>
</linearGradient>
<linearGradient id="paint2_linear_127_29" x1="68.2456" y1="-9.7679" x2="6.56964" y2="267.108" gradientUnits="userSpaceOnUse">
<stop stop-color="#FF928E"/>
<stop offset="1" stop-color="#FE7062"/>
</linearGradient>
<linearGradient id="paint3_linear_127_29" x1="202.914" y1="116.493" x2="210.207" y2="402.234" gradientUnits="userSpaceOnUse">
<stop stop-color="#09005D"/>
<stop offset="1" stop-color="#1A0F91"/>
</linearGradient>
<linearGradient id="paint4_linear_127_29" x1="371.529" y1="99.0799" x2="-316.576" y2="778.002" gradientUnits="userSpaceOnUse">
<stop stop-color="#4F52FF"/>
<stop offset="0.0001" stop-color="#197DC6"/>
<stop offset="0.9999" stop-color="#4447EA"/>
<stop offset="1" stop-color="#197DC6"/>
</linearGradient>
<linearGradient id="paint5_linear_127_29" x1="286.106" y1="60.5701" x2="305.779" y2="60.5701" gradientUnits="userSpaceOnUse">
<stop stop-color="#DAE3FE"/>
<stop offset="1" stop-color="#E9EFFD"/>
</linearGradient>
<linearGradient id="paint6_linear_127_29" x1="271.591" y1="60.4371" x2="319.972" y2="60.4371" gradientUnits="userSpaceOnUse">
<stop stop-color="#DAE3FE"/>
<stop offset="1" stop-color="#E9EFFD"/>
</linearGradient>
<linearGradient id="paint7_linear_127_29" x1="359.883" y1="90.0244" x2="373.284" y2="90.0244" gradientUnits="userSpaceOnUse">
<stop stop-color="#DAE3FE"/>
<stop offset="1" stop-color="#E9EFFD"/>
</linearGradient>
<linearGradient id="paint8_linear_127_29" x1="349.788" y1="89.9325" x2="383.166" y2="89.9325" gradientUnits="userSpaceOnUse">
<stop stop-color="#DAE3FE"/>
<stop offset="1" stop-color="#E9EFFD"/>
</linearGradient>
<linearGradient id="paint9_linear_127_29" x1="97.2896" y1="113.559" x2="284.546" y2="113.559" gradientUnits="userSpaceOnUse">
<stop stop-color="#DAE3FE"/>
<stop offset="1" stop-color="#E9EFFD"/>
</linearGradient>
<linearGradient id="paint10_linear_127_29" x1="99.5333" y1="135.708" x2="225.404" y2="135.708" gradientUnits="userSpaceOnUse">
<stop stop-color="#DAE3FE"/>
<stop offset="1" stop-color="#E9EFFD"/>
</linearGradient>
<linearGradient id="paint11_linear_127_29" x1="94.3493" y1="166.891" x2="281.607" y2="166.891" gradientUnits="userSpaceOnUse">
<stop stop-color="#DAE3FE"/>
<stop offset="1" stop-color="#E9EFFD"/>
</linearGradient>
<linearGradient id="paint12_linear_127_29" x1="96.593" y1="189.04" x2="222.463" y2="189.04" gradientUnits="userSpaceOnUse">
<stop stop-color="#DAE3FE"/>
<stop offset="1" stop-color="#E9EFFD"/>
</linearGradient>
<linearGradient id="paint13_linear_127_29" x1="218.136" y1="189.93" x2="153.047" y2="314.156" gradientUnits="userSpaceOnUse">
<stop stop-color="#09005D"/>
<stop offset="1" stop-color="#1A0F91"/>
</linearGradient>
<linearGradient id="paint14_linear_127_29" x1="253.922" y1="239.422" x2="270.463" y2="239.422" gradientUnits="userSpaceOnUse">
<stop stop-color="#09005D"/>
<stop offset="1" stop-color="#1A0F91"/>
</linearGradient>
<linearGradient id="paint15_linear_127_29" x1="344.611" y1="394.323" x2="319.77" y2="394.323" gradientUnits="userSpaceOnUse">
<stop stop-color="#09005D"/>
<stop offset="1" stop-color="#1A0F91"/>
</linearGradient>
<linearGradient id="paint16_linear_127_29" x1="342.988" y1="376.133" x2="331.81" y2="394.591" gradientUnits="userSpaceOnUse">
<stop stop-color="#4F52FF"/>
<stop offset="1" stop-color="#4042E2"/>
</linearGradient>
<linearGradient id="paint17_linear_127_29" x1="342.317" y1="382.65" x2="335.321" y2="382.65" gradientUnits="userSpaceOnUse">
<stop stop-color="#FEBBBA"/>
<stop offset="1" stop-color="#FF928E"/>
</linearGradient>
<linearGradient id="paint18_linear_127_29" x1="394.131" y1="393.787" x2="384.612" y2="393.787" gradientUnits="userSpaceOnUse">
<stop stop-color="#09005D"/>
<stop offset="1" stop-color="#1A0F91"/>
</linearGradient>
<linearGradient id="paint19_linear_127_29" x1="398.617" y1="356.476" x2="385.005" y2="391.942" gradientUnits="userSpaceOnUse">
<stop stop-color="#4F52FF"/>
<stop offset="1" stop-color="#4042E2"/>
</linearGradient>
<linearGradient id="paint20_linear_127_29" x1="386.799" y1="376.814" x2="378.437" y2="376.814" gradientUnits="userSpaceOnUse">
<stop stop-color="#FEBBBA"/>
<stop offset="1" stop-color="#FF928E"/>
</linearGradient>
<linearGradient id="paint21_linear_127_29" x1="369.763" y1="282.851" x2="335.5" y2="384.594" gradientUnits="userSpaceOnUse">
<stop stop-color="#09005D"/>
<stop offset="1" stop-color="#1A0F91"/>
</linearGradient>
<linearGradient id="paint22_linear_127_29" x1="374.583" y1="129.624" x2="308.02" y2="292.012" gradientUnits="userSpaceOnUse">
<stop stop-color="#E1473D"/>
<stop offset="1" stop-color="#E9605A"/>
</linearGradient>
<linearGradient id="paint23_linear_127_29" x1="347.414" y1="276.558" x2="327.683" y2="319.474" gradientUnits="userSpaceOnUse">
<stop stop-color="#4F52FF"/>
<stop offset="1" stop-color="#4042E2"/>
</linearGradient>
<linearGradient id="paint24_linear_127_29" x1="261.091" y1="-313.372" x2="253.504" y2="-357.888" gradientUnits="userSpaceOnUse">
<stop stop-color="#FEBBBA"/>
<stop offset="1" stop-color="#FF928E"/>
</linearGradient>
<linearGradient id="paint25_linear_127_29" x1="393.732" y1="137.473" x2="327.168" y2="299.861" gradientUnits="userSpaceOnUse">
<stop stop-color="#E1473D"/>
<stop offset="1" stop-color="#E9605A"/>
</linearGradient>
<linearGradient id="paint26_linear_127_29" x1="352.605" y1="120.614" x2="286.041" y2="283.002" gradientUnits="userSpaceOnUse">
<stop stop-color="#E1473D"/>
<stop offset="1" stop-color="#E9605A"/>
</linearGradient>
<linearGradient id="paint27_linear_127_29" x1="299.459" y1="257.696" x2="275.536" y2="263.611" gradientUnits="userSpaceOnUse">
<stop stop-color="#FEBBBA"/>
<stop offset="1" stop-color="#FF928E"/>
</linearGradient>
<linearGradient id="paint28_linear_127_29" x1="315.473" y1="194.655" x2="315.731" y2="238.461" gradientUnits="userSpaceOnUse">
<stop stop-color="#FEBBBA"/>
<stop offset="1" stop-color="#FF928E"/>
</linearGradient>
<linearGradient id="paint29_linear_127_29" x1="302.422" y1="187.736" x2="319.782" y2="218.987" gradientUnits="userSpaceOnUse">
<stop stop-color="#FEBBBA"/>
<stop offset="1" stop-color="#FF928E"/>
</linearGradient>
<linearGradient id="paint30_linear_127_29" x1="317.752" y1="196.854" x2="292.268" y2="193.252" gradientUnits="userSpaceOnUse">
<stop stop-color="#09005D"/>
<stop offset="1" stop-color="#1A0F91"/>
</linearGradient>
<linearGradient id="paint31_linear_127_29" x1="330.508" y1="214.521" x2="315.866" y2="194.543" gradientUnits="userSpaceOnUse">
<stop stop-color="#FEBBBA"/>
<stop offset="1" stop-color="#FF928E"/>
</linearGradient>
<linearGradient id="paint32_linear_127_29" x1="199.481" y1="275.577" x2="512.037" y2="267.052" gradientUnits="userSpaceOnUse">
<stop stop-color="#2A69D4"/>
<stop offset="1" stop-color="#090068"/>
</linearGradient>
<linearGradient id="paint33_linear_127_29" x1="217.534" y1="313.468" x2="173.522" y2="310.913" gradientUnits="userSpaceOnUse">
<stop stop-color="#09005D"/>
<stop offset="1" stop-color="#1A0F91"/>
</linearGradient>
<linearGradient id="paint34_linear_127_29" x1="168.567" y1="297.639" x2="343.454" y2="322.543" gradientUnits="userSpaceOnUse">
<stop stop-color="#FEBBBA"/>
<stop offset="1" stop-color="#FF928E"/>
</linearGradient>
<linearGradient id="paint35_linear_127_29" x1="247.312" y1="-311.023" x2="239.725" y2="-355.54" gradientUnits="userSpaceOnUse">
<stop stop-color="#FEBBBA"/>
<stop offset="1" stop-color="#FF928E"/>
</linearGradient>
<linearGradient id="paint36_linear_127_29" x1="286.015" y1="268.061" x2="277.62" y2="268.061" gradientUnits="userSpaceOnUse">
<stop stop-color="#FEBBBA"/>
<stop offset="1" stop-color="#FF928E"/>
</linearGradient>
</defs>
</svg>
