<svg width="27" height="26" viewBox="0 0 27 26" fill="none" xmlns="http://www.w3.org/2000/svg">
<path d="M1.46572 7.163C2.61185 5.00922 4.37011 3.19867 6.54396 1.93371C8.71782 0.668755 11.2216 -0.000758639 13.7755 6.45101e-07C17.488 6.45101e-07 20.6068 1.287 22.9913 3.3865L19.0419 7.1149C17.6134 5.8266 15.7978 5.1701 13.7755 5.1701C10.187 5.1701 7.14949 7.4581 6.06811 10.53C5.7926 11.31 5.63556 12.142 5.63556 13C5.63556 13.858 5.7926 14.69 6.06811 15.47C7.15087 18.5432 10.187 20.8299 13.7755 20.8299C15.6283 20.8299 17.2056 20.3684 18.4399 19.5884C19.1554 19.1438 19.768 18.5669 20.2406 17.8925C20.7132 17.2182 21.036 16.4604 21.1895 15.665H13.7755V10.6366H26.7493C26.9118 11.4868 27 12.3734 27 13.2951C27 17.2549 25.4985 20.5881 22.8921 22.8501C20.6137 24.8365 17.4949 26 13.7755 26C11.9663 26.0007 10.1746 25.6649 8.50299 25.0118C6.83135 24.3588 5.31246 23.4012 4.03314 22.1939C2.75382 20.9866 1.73915 19.5532 1.04712 17.9757C0.355097 16.3982 -0.000723023 14.7074 1.10302e-06 13C1.10302e-06 10.9018 0.531736 8.918 1.46572 7.163Z" fill="#32393D"/>
</svg>
